<?xml version="1.0" standalone="no"?>
<!DOCTYPE svg PUBLIC "-//W3C//DTD SVG 20010904//EN"
 "http://www.w3.org/TR/2001/REC-SVG-20010904/DTD/svg10.dtd">
<svg version="1.0" xmlns="http://www.w3.org/2000/svg"
 width="596.000000pt" height="596.000000pt" viewBox="0 0 596.000000 596.000000"
 preserveAspectRatio="xMidYMid meet">
<metadata>
Created by potrace 1.14, written by Peter Selinger 2001-2017
</metadata>
<g transform="translate(0.000000,596.000000) scale(0.100000,-0.100000)"
fill="#000000" stroke="none">
<path d="M2350 4480 c0 -267 1 -287 18 -286 130 6 325 -79 439 -192 61 -61
128 -151 119 -160 -4 -4 -47 -17 -94 -30 -48 -12 -91 -24 -97 -26 -5 -2 -21
-7 -33 -11 -42 -14 -175 -81 -232 -117 -177 -113 -314 -258 -422 -443 -61
-104 -101 -207 -135 -342 -25 -97 -27 -126 -27 -283 0 -132 4 -196 18 -260
103 -478 454 -850 919 -974 96 -26 134 -32 255 -41 70 -6 72 -6 73 17 0 26 0
515 0 538 -1 10 -11 15 -33 15 -64 -1 -195 32 -269 68 -70 33 -179 110 -179
126 0 3 21 13 48 20 71 21 202 83 284 136 385 247 616 680 619 1160 1 125 -9
215 -37 335 -9 36 -17 72 -19 80 -12 55 -74 201 -120 284 -220 398 -590 639
-1032 670 l-63 4 0 -288z m690 -1223 c0 -23 -39 -152 -61 -201 l-22 -50 -14
45 c-16 46 -92 129 -119 129 -46 0 17 39 116 71 66 21 100 24 100 6z m-409
-487 c21 -11 52 -20 69 -20 16 0 30 -3 30 -7 0 -7 -70 -53 -95 -62 -5 -2 -23
-10 -40 -17 -48 -22 -128 -44 -137 -38 -8 5 -6 33 8 108 2 11 13 48 25 84 l21
65 40 -47 c22 -26 57 -56 79 -66z"/>
</g>
</svg>
